<?xml version="1.0" standalone="no"?><!DOCTYPE svg PUBLIC "-//W3C//DTD SVG 1.1//EN" "http://www.w3.org/Graphics/SVG/1.1/DTD/svg11.dtd"><svg t="1597716080041" class="icon" viewBox="0 0 1024 1024" version="1.1" xmlns="http://www.w3.org/2000/svg" p-id="5756" xmlns:xlink="http://www.w3.org/1999/xlink" width="200" height="200"><defs><style type="text/css"></style></defs><path d="M512 1024A512 512 0 1 1 1024 512 512 512 0 0 1 512 1024z m279.272727-791.489939a40.866909 40.866909 0 0 0-50.455272-5.957819l-310.303031 190.650182a42.232242 42.232242 0 0 0-13.498182 13.498182l-190.619151 310.30303a41.084121 41.084121 0 0 0 56.692364 56.475152l310.30303-190.526061a42.201212 42.201212 0 0 0 13.498182-13.498182l190.619151-310.30303a40.897939 40.897939 0 0 0-6.237091-50.641454zM535.396848 552.339394a46.545455 46.545455 0 1 1 23.334788-40.339394 46.545455 46.545455 0 0 1-23.334788 40.339394z" p-id="5757"></path></svg>